<?xml version="1.0" standalone="no"?>
<!DOCTYPE svg PUBLIC "-//W3C//DTD SVG 20010904//EN"
 "http://www.w3.org/TR/2001/REC-SVG-20010904/DTD/svg10.dtd">
<svg version="1.0" xmlns="http://www.w3.org/2000/svg"
 width="16.000000pt" height="16.000000pt" viewBox="0 0 16.000000 16.000000"
 preserveAspectRatio="xMidYMid meet">
<metadata>
Created by potrace 1.11, written by Peter Selinger 2001-2013
</metadata>
<g transform="translate(0.000000,16.000000) scale(0.007805,-0.007805)"
fill="#000000" stroke="none">
<path d="M974 2036 c-18 -8 -237 -219 -487 -470 -500 -500 -492 -490 -468
-579 11 -39 65 -96 474 -505 501 -499 482 -484 574 -467 33 6 95 63 502 470
l464 463 5 56 c2 30 2 66 -2 80 -7 29 -886 914 -939 946 -37 23 -79 25 -123 6z
m99 -25 c31 -12 911 -891 932 -930 23 -45 19 -83 -14 -127 -16 -21 -226 -236
-468 -476 l-439 -438 -54 0 -54 0 -439 438 c-242 240 -452 455 -468 476 -32
44 -37 82 -14 127 19 35 889 907 925 926 29 15 59 17 93 4z"/>
<path d="M538 1522 l-438 -437 0 -55 0 -54 438 -438 437 -438 52 0 c49 0 57 3
105 48 123 112 811 808 824 833 18 35 18 63 0 98 -14 25 -702 722 -824 833
-48 44 -56 48 -104 48 l-53 0 -437 -438z m737 -15 c81 -26 144 -74 187 -141
61 -95 73 -147 73 -326 0 -182 -12 -243 -63 -330 -46 -78 -105 -124 -196 -153
-66 -20 -90 -22 -346 -22 l-275 0 -3 485 c-1 267 0 491 3 498 8 21 552 12 620
-11z"/>
<path d="M920 1030 l0 -343 97 6 c176 12 225 59 243 235 11 100 -1 260 -22
309 -40 93 -93 124 -225 131 l-93 5 0 -343z"/>
</g>
</svg>
